<svg width="21" height="21" viewBox="0 0 21 21" fill="none" xmlns="http://www.w3.org/2000/svg">
<path d="M19.2274 1.91317H16.9774V0.93491C16.9774 0.827301 16.8894 0.739258 16.7818 0.739258H4.26002C4.15241 0.739258 4.06437 0.827301 4.06437 0.93491V1.91317H1.81437C1.52897 1.91317 1.25527 2.02654 1.05346 2.22835C0.851654 2.43015 0.738281 2.70386 0.738281 2.98926V6.60882C0.738281 8.60692 2.20567 10.2675 4.11817 10.5708C4.49725 13.4126 6.77904 15.6504 9.64046 15.9634V18.5363H4.84698C4.4141 18.5363 4.06437 18.886 4.06437 19.3189V20.1088C4.06437 20.2164 4.15241 20.3045 4.26002 20.3045H16.7818C16.8894 20.3045 16.9774 20.2164 16.9774 20.1088V19.3189C16.9774 18.886 16.6277 18.5363 16.1948 18.5363H11.4013V15.9634C14.2627 15.6504 16.5445 13.4126 16.9236 10.5708C18.8361 10.2675 20.3035 8.60692 20.3035 6.60882V2.98926C20.3035 2.70386 20.1901 2.43015 19.9883 2.22835C19.7865 2.02654 19.5128 1.91317 19.2274 1.91317ZM2.49915 6.60882V3.67404H4.06437V8.75121C3.61008 8.60611 3.21366 8.32039 2.93232 7.93532C2.65099 7.55024 2.4993 7.08572 2.49915 6.60882ZM15.2165 9.73926C15.2165 10.9401 14.7494 12.0724 13.8983 12.9211C13.0472 13.7721 11.9174 14.2393 10.7165 14.2393H10.3252C9.12442 14.2393 7.99209 13.7721 7.14344 12.9211C6.29236 12.07 5.82524 10.9401 5.82524 9.73926V2.50013H15.2165V9.73926ZM18.5426 6.60882C18.5426 7.61154 17.8848 8.46263 16.9774 8.75121V3.67404H18.5426V6.60882Z" fill="white"/>
</svg>
